<svg width="26" height="26" viewBox="0 0 26 26" fill="none" xmlns="http://www.w3.org/2000/svg">
<g filter="url(#filter0_d_3040_541)">
<circle cx="13" cy="13" r="10" fill="white"/>
</g>
<path d="M22 13.0002C22 17.4925 18.7087 21.216 14.4062 21.891V15.6018H16.5033L16.9023 13.0002H14.4062V11.3119C14.4062 10.6 14.755 9.90636 15.873 9.90636H17.0078V7.69147C17.0078 7.69147 15.9777 7.51569 14.993 7.51569C12.9374 7.51569 11.5938 8.76165 11.5938 11.0173V13.0002H9.30859V15.6018H11.5938V21.891C7.29133 21.216 4 17.4925 4 13.0002C4 8.02968 8.02961 4 13 4C17.9704 4 22 8.02968 22 13.0002Z" fill="#1877F2"/>
<path d="M16.5072 15.6017L16.9062 13.0001H14.4102V11.3118C14.4102 10.6001 14.7588 9.90629 15.8768 9.90629H17.0117V7.69141C17.0117 7.69141 15.9818 7.51562 14.9971 7.51562C12.9413 7.51562 11.5977 8.76158 11.5977 11.0173V13.0001H9.3125V15.6017H11.5977V21.8909C12.0559 21.9628 12.5255 22.0003 13.0039 22.0003C13.4823 22.0003 13.9519 21.9628 14.4102 21.8909V15.6017H16.5072Z" fill="white"/>
<defs>
<filter id="filter0_d_3040_541" x="-2" y="-2" width="30" height="30" filterUnits="userSpaceOnUse" color-interpolation-filters="sRGB">
<feFlood flood-opacity="0" result="BackgroundImageFix"/>
<feColorMatrix in="SourceAlpha" type="matrix" values="0 0 0 0 0 0 0 0 0 0 0 0 0 0 0 0 0 0 127 0" result="hardAlpha"/>
<feMorphology radius="1" operator="dilate" in="SourceAlpha" result="effect1_dropShadow_3040_541"/>
<feOffset/>
<feGaussianBlur stdDeviation="2"/>
<feComposite in2="hardAlpha" operator="out"/>
<feColorMatrix type="matrix" values="0 0 0 0 1 0 0 0 0 1 0 0 0 0 1 0 0 0 0.4 0"/>
<feBlend mode="normal" in2="BackgroundImageFix" result="effect1_dropShadow_3040_541"/>
<feBlend mode="normal" in="SourceGraphic" in2="effect1_dropShadow_3040_541" result="shape"/>
</filter>
</defs>
</svg>
