<svg width="26" height="26" viewBox="0 0 26 26" fill="none" xmlns="http://www.w3.org/2000/svg">
<g filter="url(#filter0_d_3040_576)">
<circle cx="13" cy="13" r="10" fill="white"/>
</g>
<path d="M13 22C17.9706 22 22 17.9706 22 13C22 8.02944 17.9706 4 13 4C8.02944 4 4 8.02944 4 13C4 17.9706 8.02944 22 13 22Z" fill="#0B69C7"/>
<path d="M10.9897 9.72803C10.9899 9.97124 10.918 10.2091 10.783 10.4114C10.648 10.6137 10.4561 10.7714 10.2314 10.8646C10.0067 10.9578 9.7595 10.9823 9.52094 10.9349C9.28239 10.8875 9.06326 10.7704 8.89128 10.5984C8.7193 10.4264 8.6022 10.2073 8.55481 9.96873C8.50742 9.73017 8.53186 9.48292 8.62505 9.25827C8.71823 9.03361 8.87596 8.84164 9.07829 8.70667C9.28061 8.57169 9.51843 8.49977 9.76165 8.5C10.0872 8.50031 10.3994 8.6298 10.6296 8.86003C10.8599 9.09026 10.9894 9.40243 10.9897 9.72803Z" fill="white"/>
<path d="M10.41 11.4688H9.11684C8.94876 11.4688 8.8125 11.605 8.8125 11.7731V17.1956C8.8125 17.3637 8.94876 17.4999 9.11684 17.4999H10.41C10.5781 17.4999 10.7143 17.3637 10.7143 17.1956V11.7731C10.7143 11.605 10.5781 11.4688 10.41 11.4688Z" fill="white"/>
<path d="M17.4709 14.594V17.2194C17.4709 17.2936 17.4414 17.3646 17.389 17.4171C17.3366 17.4695 17.2655 17.4989 17.1914 17.4989H15.8035C15.7294 17.4989 15.6583 17.4695 15.6059 17.4171C15.5535 17.3646 15.524 17.2936 15.524 17.2194V14.6757C15.524 14.2956 15.6342 13.0179 14.5317 13.0179C13.6767 13.0179 13.5026 13.8965 13.4659 14.2909V17.2254C13.4643 17.298 13.4345 17.3673 13.3828 17.4183C13.3311 17.4694 13.2615 17.4983 13.1888 17.4989H11.8459C11.8091 17.4991 11.7727 17.4919 11.7387 17.478C11.7048 17.464 11.6739 17.4434 11.6479 17.4174C11.6219 17.3914 11.6014 17.3605 11.5874 17.3266C11.5734 17.2926 11.5663 17.2562 11.5664 17.2194V11.7484C11.5663 11.7116 11.5734 11.6751 11.5873 11.6411C11.6013 11.607 11.6219 11.5761 11.6478 11.55C11.6738 11.5239 11.7047 11.5032 11.7387 11.4891C11.7726 11.475 11.8091 11.4677 11.8459 11.4677H13.1888C13.226 11.4671 13.263 11.4739 13.2976 11.4877C13.3322 11.5015 13.3637 11.5221 13.3903 11.5482C13.4169 11.5744 13.438 11.6055 13.4524 11.6399C13.4668 11.6742 13.4742 11.7111 13.4742 11.7484V12.2221C13.7915 11.7484 14.2629 11.3789 15.2659 11.3789C17.4839 11.3777 17.4709 13.4536 17.4709 14.594Z" fill="white"/>
<defs>
<filter id="filter0_d_3040_576" x="-2" y="-2" width="30" height="30" filterUnits="userSpaceOnUse" color-interpolation-filters="sRGB">
<feFlood flood-opacity="0" result="BackgroundImageFix"/>
<feColorMatrix in="SourceAlpha" type="matrix" values="0 0 0 0 0 0 0 0 0 0 0 0 0 0 0 0 0 0 127 0" result="hardAlpha"/>
<feMorphology radius="1" operator="dilate" in="SourceAlpha" result="effect1_dropShadow_3040_576"/>
<feOffset/>
<feGaussianBlur stdDeviation="2"/>
<feComposite in2="hardAlpha" operator="out"/>
<feColorMatrix type="matrix" values="0 0 0 0 1 0 0 0 0 1 0 0 0 0 1 0 0 0 0.4 0"/>
<feBlend mode="normal" in2="BackgroundImageFix" result="effect1_dropShadow_3040_576"/>
<feBlend mode="normal" in="SourceGraphic" in2="effect1_dropShadow_3040_576" result="shape"/>
</filter>
</defs>
</svg>
