<svg width="148" height="50" viewBox="0 0 148 50" fill="none" xmlns="http://www.w3.org/2000/svg">
<path d="M93.6016 10.2463C93.6016 7.22158 96.0581 4.76953 99.0885 4.76953H127.255C130.285 4.76953 132.742 7.2216 132.742 10.2464V12.8022C132.742 15.827 130.285 18.2791 127.255 18.2791H93.6016V10.2463Z" fill="#000EC0"/>
<path d="M111.656 8.42969H113.662L114.637 14.1351H114.174L115.489 8.42969H117.524L118.811 14.1351H118.337L119.322 8.42969H121.328L119.691 15.0892H117.41L116.388 10.5456H116.596L115.555 15.0892H113.274L111.656 8.42969Z" fill="#00FFEE"/>
<path d="M107.863 15.1589C107.39 15.1589 106.945 15.0771 106.529 14.9133C106.119 14.7433 105.756 14.5071 105.44 14.2049C105.125 13.8963 104.879 13.5373 104.702 13.128C104.526 12.7124 104.438 12.2558 104.438 11.7583C104.438 11.2608 104.526 10.8074 104.702 10.3981C104.879 9.98246 105.125 9.62351 105.44 9.32123C105.756 9.01896 106.119 8.78596 106.529 8.62223C106.945 8.45221 107.39 8.36719 107.863 8.36719C108.336 8.36719 108.778 8.45221 109.188 8.62223C109.605 8.78596 109.967 9.01896 110.276 9.32123C110.592 9.62351 110.838 9.98246 111.015 10.3981C111.191 10.8074 111.279 11.2608 111.279 11.7583C111.279 12.2558 111.191 12.7124 111.015 13.128C110.838 13.5373 110.592 13.8963 110.276 14.2049C109.967 14.5071 109.605 14.7433 109.188 14.9133C108.778 15.0771 108.336 15.1589 107.863 15.1589ZM107.863 13.4397C108.185 13.4397 108.459 13.3705 108.686 13.2319C108.914 13.0934 109.087 12.8981 109.207 12.6463C109.333 12.3881 109.396 12.0921 109.396 11.7583C109.396 11.412 109.333 11.1128 109.207 10.861C109.087 10.6091 108.914 10.4138 108.686 10.2753C108.459 10.1368 108.185 10.0675 107.863 10.0675C107.541 10.0675 107.267 10.1368 107.04 10.2753C106.813 10.4138 106.636 10.6091 106.51 10.861C106.39 11.1128 106.33 11.412 106.33 11.7583C106.33 12.0921 106.39 12.3881 106.51 12.6463C106.636 12.8981 106.813 13.0934 107.04 13.2319C107.267 13.3705 107.541 13.4397 107.863 13.4397Z" fill="#00FFEE"/>
<path d="M103.609 8.42969V15.0892H101.755L99.2847 11.3674V15.0892H97.4297V8.42969H99.2847L101.755 12.1987V8.42969H103.609Z" fill="#00FFEE"/>
<path d="M128.533 13.8924C128.543 13.8924 128.733 13.7788 128.955 13.6399C129.177 13.501 129.354 13.3791 129.349 13.369C129.344 13.3589 129.237 13.215 129.112 13.0493C128.861 12.7166 128.619 12.2768 128.512 11.9577C128.178 10.9632 128.331 9.93055 128.938 9.097L129.092 8.88473L128.798 8.59143L128.504 8.29811L128.31 8.43627C127.037 9.34148 125.512 9.23732 124.16 8.15293C124.072 8.08211 123.996 8.02748 123.993 8.03145C123.956 8.06814 123.493 8.82243 123.494 8.84555C123.494 8.86223 123.575 8.93055 123.673 8.9973C124.766 9.7365 126.017 9.9775 126.984 9.63532L127.215 9.55325L123.992 12.7828L121.953 14.8249L122.548 15.4185L124.599 13.3785L127.827 10.1683L127.729 10.4665C127.475 11.2401 127.579 12.1568 128.025 13.0811C128.153 13.3444 128.495 13.8922 128.533 13.8924Z" fill="#00FFEE"/>
<path d="M128.864 8.90208L128.795 8.99587C128.156 9.87526 127.995 10.966 128.346 12.0118C128.46 12.352 128.712 12.8082 128.972 13.1523C129.022 13.2189 129.069 13.2819 129.108 13.3339C129.08 13.3528 129.048 13.3741 129.014 13.3964L128.86 13.4941C128.75 13.5631 128.648 13.6256 128.573 13.6706C128.572 13.6709 128.572 13.6713 128.571 13.6716C128.538 13.6233 128.498 13.5621 128.455 13.4942C128.35 13.3262 128.237 13.1296 128.177 13.0062C127.758 12.139 127.659 11.2951 127.868 10.5876L127.889 10.5196L127.987 10.2213L127.702 10.0465L122.545 15.1757L122.193 14.8245L127.334 9.6741L127.155 9.39121L126.923 9.47328C126.022 9.79212 124.829 9.57319 123.767 8.85494C123.745 8.84001 123.724 8.82528 123.705 8.81144C123.707 8.80785 123.709 8.80408 123.711 8.80035C123.755 8.72699 123.813 8.63037 123.873 8.53283C123.93 8.44026 123.987 8.34774 124.034 8.27428C124.039 8.2783 124.045 8.28221 124.05 8.28637C125.453 9.41158 127.063 9.53185 128.407 8.57569L128.483 8.52187L128.864 8.90208ZM128.52 8.07371L128.207 8.29621C127.007 9.15039 125.566 9.06239 124.265 8.01887C124.219 7.98228 124.176 7.94908 124.143 7.92496C124.126 7.91321 124.11 7.90196 124.097 7.8933C124.091 7.88949 124.08 7.88317 124.068 7.87755C124.064 7.87526 124.05 7.86908 124.033 7.86469C124.024 7.8626 124.006 7.85853 123.983 7.85953C123.961 7.86046 123.911 7.86705 123.868 7.90983C123.854 7.92383 123.842 7.94076 123.838 7.94626C123.831 7.95596 123.823 7.96778 123.815 7.98055C123.797 8.00628 123.775 8.0401 123.751 8.07862C123.702 8.15592 123.64 8.25519 123.58 8.35369C123.519 8.45221 123.46 8.5508 123.415 8.62651C123.393 8.66417 123.374 8.69721 123.36 8.72205C123.353 8.73421 123.347 8.74617 123.342 8.75635C123.339 8.76117 123.336 8.76799 123.333 8.77539C123.332 8.77899 123.329 8.78521 123.327 8.79292C123.326 8.79617 123.319 8.81785 123.319 8.84599C123.319 8.90328 123.348 8.94355 123.351 8.94924C123.361 8.96353 123.371 8.97539 123.379 8.98351C123.395 9.00042 123.414 9.01755 123.432 9.0333C123.471 9.06558 123.521 9.10308 123.574 9.13908C124.549 9.79851 125.662 10.0836 126.614 9.90896L121.707 14.8249L122.544 15.6606L127.473 10.759C127.335 11.4752 127.46 12.2724 127.825 13.066L127.867 13.1552C127.935 13.2953 128.056 13.5043 128.164 13.676C128.218 13.7623 128.27 13.8422 128.312 13.9016C128.333 13.9307 128.353 13.9578 128.371 13.9791C128.38 13.9892 128.392 14.0023 128.405 14.0141C128.411 14.0199 128.422 14.0291 128.437 14.0377C128.447 14.0439 128.481 14.0634 128.529 14.0637H128.529C128.56 14.0637 128.583 14.0553 128.585 14.0546C128.593 14.0521 128.599 14.0496 128.602 14.0482C128.609 14.0451 128.616 14.0419 128.62 14.0396C128.63 14.0346 128.641 14.0282 128.653 14.0214C128.678 14.0076 128.711 13.9882 128.75 13.9651C128.827 13.9186 128.931 13.8548 129.043 13.7849C129.156 13.7146 129.258 13.648 129.332 13.5971C129.368 13.5719 129.4 13.5492 129.424 13.5312C129.434 13.5227 129.447 13.5121 129.459 13.5013C129.464 13.4967 129.475 13.4862 129.485 13.4718C129.49 13.4651 129.5 13.4492 129.508 13.4268C129.514 13.4099 129.527 13.3645 129.508 13.3119L129.498 13.289L129.498 13.2885C129.491 13.2755 129.481 13.2616 129.48 13.2603C129.476 13.254 129.47 13.2461 129.464 13.2371C129.45 13.2189 129.432 13.1942 129.411 13.1651C129.367 13.1067 129.309 13.0288 129.246 12.9457C129.004 12.6244 128.772 12.2008 128.672 11.9028C128.355 10.9598 128.501 9.98524 129.074 9.19758L129.314 8.86664L128.52 8.07371Z" fill="#00FFEE"/>
<path d="M37.558 34.5258C37.558 35.8183 37.864 36.8406 38.476 37.5924C39.0883 38.3445 40.0416 38.7204 41.3365 38.7204C42.6549 38.7204 43.6201 38.3445 44.2321 37.5924C44.8676 36.8406 45.1854 35.8183 45.1854 34.5258V20.1094H52.1071V34.5258C52.1071 36.8756 51.6125 38.8495 50.6239 40.4474C49.635 42.0217 48.3167 43.2088 46.6689 44.0076C45.0208 44.8065 43.1961 45.2058 41.1951 45.2058C39.1942 45.2058 37.3931 44.8065 35.7922 44.0076C34.215 43.2088 32.9672 42.0217 32.0492 40.4474C31.1311 38.8495 30.6719 36.8756 30.6719 34.5258V20.1094H37.558V34.5258ZM13.9801 29.5558C15.5338 29.5558 16.8756 29.1799 18.0056 28.4279C19.1356 27.6524 20.0303 26.5597 20.6894 25.1497C21.3722 23.7399 21.7606 22.0597 21.8548 20.1094H29.3412C29.2001 21.6132 28.8941 23.0231 28.4232 24.339C27.976 25.6549 27.3753 26.8417 26.6221 27.8992C25.8924 28.9567 25.0212 29.8731 24.0089 30.6486C22.9966 31.4004 21.8783 31.9879 20.6541 32.4111C22.3256 32.7633 23.8088 33.5036 25.1037 34.6315C26.422 35.7595 27.5049 37.1929 28.3526 38.9317C29.2235 40.6706 29.8237 42.6799 30.1534 44.9592H22.6671C22.5494 42.8915 22.1139 41.1406 21.3605 39.7072C20.6307 38.2504 19.6418 37.1342 18.3941 36.3588C17.1464 35.5833 15.675 35.1956 13.9801 35.1956V44.9592H7.05859V20.1094H13.9801V29.5558ZM66.0881 20.1094C67.783 20.1094 69.2309 20.3679 70.4315 20.8849C71.6556 21.3783 72.5973 22.1067 73.2565 23.0701C73.9157 24.0101 74.2454 25.1733 74.2454 26.5597C74.2454 27.8051 73.9628 28.8745 73.3977 29.7674C72.8564 30.6367 72.1264 31.3065 71.2084 31.7765C70.8514 31.9501 70.478 32.0892 70.0888 32.1954C70.7767 32.352 71.3971 32.612 71.95 32.9749C72.868 33.5624 73.5746 34.3145 74.0689 35.2308C74.5632 36.1238 74.8103 37.1106 74.8105 38.1915C74.8105 39.5779 74.4808 40.7881 73.8216 41.8222C73.1859 42.8326 72.2442 43.6081 70.9966 44.1486C69.7723 44.689 68.2657 44.9592 66.4765 44.9592H54.152V20.1094H66.0881ZM92.0042 25.6433H82.9992V29.6967H90.945V34.9488H82.9992V39.4254H92.0042V44.9592H76.078V20.1094H92.0042V25.6433ZM104.571 20.1094C106.524 20.1094 108.184 20.4148 109.55 21.0258C110.939 21.6367 111.998 22.5298 112.728 23.7047C113.481 24.8561 113.858 26.2426 113.858 27.864C113.858 29.3208 113.41 30.6604 112.516 31.8822C111.621 33.1042 110.315 33.9149 108.596 34.3145C109.773 34.7138 110.821 35.3954 111.739 36.3588C112.657 37.2986 113.422 38.4972 114.034 39.954C114.592 41.2115 114.995 42.6499 115.245 44.269L124.069 20.1094H132.049L141.089 44.9592H133.78L132.44 40.9058H123.615L122.268 44.9592H107.855C107.761 43.4086 107.502 42.0336 107.078 40.8351C106.678 39.6133 106.03 38.6381 105.135 37.9097C104.594 37.4397 103.946 37.0756 103.193 36.817C102.44 36.5352 101.569 36.3822 100.58 36.3588V44.9592H93.6589V20.1094H104.571ZM61.0736 39.3901H65.0992C65.9703 39.3901 66.6177 39.2138 67.0414 38.8613C67.4888 38.4854 67.7124 37.9331 67.7124 37.2047C67.7124 36.4529 67.477 35.877 67.0061 35.4776C66.5589 35.0781 65.9114 34.8783 65.0639 34.8783H61.0736V39.3901ZM125.371 35.6186H130.691L128.038 27.5931L125.371 35.6186ZM103.669 23.2645C103.551 23.0088 103.186 23.0088 103.067 23.2645C102.675 24.1115 102.067 24.872 101.258 25.4595C100.452 26.0442 99.5411 26.3854 98.6169 26.4967C98.3334 26.5315 98.2118 26.8749 98.4224 27.0692C99.1073 27.7036 99.6451 28.5147 99.9548 29.4645C100.123 29.979 100.211 30.5004 100.229 31.0158H106.509C106.527 30.5008 106.615 29.9795 106.783 29.4645C107.093 28.5149 107.631 27.7022 108.315 27.0692H108.313C108.522 26.8751 108.402 26.5315 108.119 26.4967C107.194 26.3854 106.284 26.0442 105.477 25.4595C104.667 24.872 104.06 24.1104 103.669 23.2645ZM61.0736 29.9788H64.5696C65.417 29.9788 66.0644 29.8024 66.5116 29.4499C66.959 29.0974 67.1828 28.5572 67.1828 27.8286C67.1828 27.1001 66.959 26.5481 66.5116 26.172C66.0644 25.7961 65.417 25.6081 64.5696 25.6081H61.0736V29.9788Z" fill="url(#paint0_linear_3040_427)"/>
<defs>
<linearGradient id="paint0_linear_3040_427" x1="137.133" y1="20.1094" x2="-1.85293" y2="45.2097" gradientUnits="userSpaceOnUse">
<stop offset="0.439507" stop-color="#000EC0"/>
<stop offset="1" stop-color="#000764"/>
</linearGradient>
</defs>
</svg>
