<svg width="124" height="42" viewBox="0 0 124 42" fill="none" xmlns="http://www.w3.org/2000/svg">
<path d="M83.2119 4.16406H106.811C109.307 4.1641 111.331 6.18949 111.331 8.6879V10.8349C111.331 13.3333 109.307 15.3587 106.811 15.3587H78.6914V8.6879C78.6914 6.18949 80.7153 4.1641 83.2119 4.16406Z" fill="#010874" stroke="white" stroke-width="0.803268"/>
<path d="M93.7383 7.15625H95.4191L96.2358 11.9488H95.8474L96.9495 7.15625H98.6542L99.7324 11.9488H99.336L100.161 7.15625H101.842L100.47 12.7502H98.559L97.7027 8.93363H97.8772L97.005 12.7502H95.0941L93.7383 7.15625Z" fill="#00FFEE"/>
<path d="M90.5654 12.8066C90.169 12.8066 89.7964 12.7378 89.4475 12.6003C89.104 12.4575 88.8001 12.2591 88.5357 12.0052C88.2714 11.746 88.0652 11.4445 87.9172 11.1006C87.7693 10.7515 87.6953 10.368 87.6953 9.95012C87.6953 9.53224 87.7693 9.15135 87.9172 8.80753C88.0652 8.45839 88.2714 8.15687 88.5357 7.90296C88.8001 7.64905 89.104 7.45333 89.4475 7.3158C89.7964 7.17298 90.169 7.10156 90.5654 7.10156C90.9619 7.10156 91.3319 7.17298 91.6755 7.3158C92.0244 7.45333 92.3283 7.64905 92.5874 7.90296C92.8516 8.15687 93.0578 8.45839 93.2059 8.80753C93.3539 9.15135 93.4277 9.53224 93.4277 9.95012C93.4277 10.368 93.3539 10.7515 93.2059 11.1006C93.0578 11.4445 92.8516 11.746 92.5874 12.0052C92.3283 12.2591 92.0244 12.4575 91.6755 12.6003C91.3319 12.7378 90.9619 12.8066 90.5654 12.8066ZM90.5654 11.3625C90.835 11.3625 91.0651 11.3043 91.2553 11.1879C91.4456 11.0716 91.591 10.9076 91.6914 10.696C91.797 10.4791 91.8499 10.2305 91.8499 9.95012C91.8499 9.65919 91.797 9.40792 91.6914 9.19633C91.591 8.98473 91.4456 8.82076 91.2553 8.70438C91.0651 8.588 90.835 8.52981 90.5654 8.52981C90.2959 8.52981 90.066 8.588 89.8756 8.70438C89.6854 8.82076 89.5374 8.98473 89.4317 9.19633C89.3312 9.40792 89.281 9.65919 89.281 9.95012C89.281 10.2305 89.3312 10.4791 89.4317 10.696C89.5374 10.9076 89.6854 11.0716 89.8756 11.1879C90.066 11.3043 90.2959 11.3625 90.5654 11.3625Z" fill="#00FFEE"/>
<path d="M86.998 7.15625V12.7502H85.444L83.3745 9.62394V12.7502H81.8203V7.15625H83.3745L85.444 10.3222V7.15625H86.998Z" fill="#00FFEE"/>
<path d="M107.876 11.7515C107.884 11.7515 108.043 11.656 108.23 11.5394C108.416 11.4227 108.564 11.3203 108.56 11.3118C108.555 11.3033 108.466 11.1825 108.361 11.0433C108.151 10.7638 107.948 10.3943 107.858 10.1263C107.579 9.29097 107.707 8.42353 108.215 7.72335L108.344 7.54505L108.098 7.29868L107.852 7.05231L107.689 7.16836C106.623 7.92872 105.345 7.84122 104.213 6.93034C104.139 6.87085 104.075 6.82496 104.072 6.8283C104.041 6.85911 103.654 7.49272 103.654 7.51213C103.654 7.52616 103.722 7.58355 103.805 7.6396C104.72 8.26053 105.768 8.46297 106.578 8.17556L106.772 8.1066L104.071 10.8194L102.363 12.5348L102.862 13.0334L104.58 11.3198L107.285 8.62328L107.203 8.87375C106.99 9.52353 107.077 10.2936 107.451 11.07C107.558 11.2912 107.844 11.7513 107.876 11.7515Z" fill="#00FFEE"/>
<path d="M108.156 7.55946L108.099 7.63825C107.563 8.37694 107.428 9.29313 107.722 10.1717C107.818 10.4574 108.029 10.8406 108.247 11.1297C108.289 11.1856 108.328 11.2385 108.361 11.2822C108.337 11.2981 108.311 11.3159 108.282 11.3347L108.154 11.4168C108.061 11.4747 107.976 11.5272 107.913 11.565C107.912 11.5653 107.912 11.5656 107.911 11.5659C107.884 11.5253 107.85 11.4739 107.814 11.4169C107.726 11.2757 107.631 11.1105 107.581 11.007C107.23 10.2785 107.147 9.56962 107.322 8.97526L107.34 8.9182L107.422 8.66765L107.183 8.52077L102.862 12.8293L102.567 12.5343L106.875 8.20796L106.724 7.97034L106.53 8.03927C105.776 8.3071 104.776 8.1232 103.886 7.51987C103.867 7.50733 103.85 7.49497 103.834 7.48333C103.836 7.48031 103.838 7.47714 103.839 7.47401C103.876 7.41239 103.925 7.33123 103.975 7.24931C104.022 7.17154 104.071 7.09382 104.11 7.03211C104.114 7.03549 104.119 7.03878 104.123 7.04227C105.299 7.98744 106.647 8.08847 107.773 7.2853L107.837 7.24009L108.156 7.55946ZM107.868 6.86364L107.606 7.05054C106.6 7.76805 105.393 7.69413 104.303 6.81757C104.265 6.78683 104.229 6.75894 104.201 6.73869C104.187 6.72882 104.174 6.71937 104.162 6.71209C104.157 6.70889 104.148 6.70358 104.139 6.69886C104.135 6.69694 104.124 6.69174 104.109 6.68806C104.102 6.6863 104.086 6.68288 104.067 6.68372C104.048 6.68451 104.006 6.69004 103.971 6.72597C103.959 6.73773 103.949 6.75196 103.946 6.75658C103.94 6.76475 103.933 6.77465 103.926 6.78538C103.911 6.80699 103.893 6.8354 103.873 6.86776C103.831 6.93269 103.78 7.01608 103.729 7.09882C103.678 7.18158 103.629 7.26439 103.591 7.32799C103.573 7.35962 103.557 7.38738 103.545 7.40824C103.539 7.41848 103.534 7.4285 103.53 7.43705C103.528 7.4411 103.525 7.44683 103.523 7.45305C103.521 7.45607 103.519 7.4613 103.517 7.46777C103.516 7.4705 103.51 7.48871 103.51 7.51235C103.511 7.56047 103.535 7.5943 103.538 7.59908C103.546 7.61108 103.555 7.62105 103.561 7.62787C103.574 7.64207 103.59 7.65646 103.606 7.66969C103.638 7.69682 103.68 7.7283 103.724 7.75854C104.541 8.31247 105.474 8.55192 106.271 8.40525L102.16 12.5346L102.862 13.2367L106.991 9.11928C106.876 9.72086 106.981 10.3905 107.286 11.0571L107.322 11.1321C107.378 11.2497 107.48 11.4253 107.57 11.5696C107.615 11.6421 107.659 11.7092 107.694 11.759C107.712 11.7835 107.729 11.8063 107.744 11.8241C107.751 11.8327 107.761 11.8436 107.772 11.8536C107.777 11.8584 107.787 11.8661 107.799 11.8734C107.807 11.8786 107.836 11.895 107.876 11.8952H107.876C107.902 11.8953 107.921 11.8882 107.923 11.8876C107.929 11.8855 107.934 11.8834 107.937 11.8822C107.943 11.8796 107.948 11.8769 107.952 11.875C107.96 11.8708 107.97 11.8654 107.98 11.8597C108.001 11.8481 108.028 11.8318 108.061 11.8124C108.126 11.7734 108.213 11.7197 108.307 11.6611C108.401 11.602 108.486 11.546 108.548 11.5033C108.579 11.4821 108.606 11.4631 108.625 11.4479C108.634 11.4408 108.645 11.4319 108.655 11.4228C108.659 11.419 108.668 11.4102 108.677 11.398C108.681 11.3924 108.69 11.3791 108.696 11.3602C108.701 11.346 108.712 11.3079 108.696 11.2637L108.688 11.2445L108.688 11.2441C108.682 11.2331 108.674 11.2215 108.673 11.2203C108.669 11.2151 108.664 11.2084 108.659 11.2008C108.648 11.1856 108.633 11.1649 108.615 11.1404C108.578 11.0913 108.529 11.026 108.477 10.9561C108.274 10.6862 108.079 10.3304 107.995 10.0801C107.73 9.28795 107.852 8.46933 108.332 7.80768L108.534 7.52972L107.868 6.86364Z" fill="#00FFEE"/>
<path d="M31.659 29.0786C31.659 30.1643 31.9154 31.023 32.4282 31.6545C32.9412 32.2862 33.7399 32.602 34.8248 32.602C35.9294 32.602 36.738 32.2862 37.2508 31.6545C37.7833 31.023 38.0496 30.1643 38.0496 29.0786V16.9688H43.8488V29.0786C43.8488 31.0524 43.4344 32.7104 42.6061 34.0527C41.7776 35.3751 40.673 36.3722 39.2924 37.0433C37.9117 37.7143 36.3828 38.0499 34.7064 38.0499C33.0299 38.0498 31.5209 37.7143 30.1796 37.0433C28.8581 36.3722 27.8127 35.3751 27.0435 34.0527C26.2744 32.7104 25.8896 31.0524 25.8896 29.0786V16.9688H31.659V29.0786ZM11.9045 24.9038C13.2063 24.9038 14.3306 24.588 15.2773 23.9563C16.2241 23.3049 16.9736 22.387 17.5259 21.2026C18.0979 20.0184 18.4234 18.6071 18.5023 16.9688H24.7747C24.6564 18.232 24.4 19.4163 24.0055 20.5216C23.6309 21.627 23.1276 22.6239 22.4966 23.5122C21.8851 24.4005 21.1553 25.1703 20.3071 25.8216C19.4589 26.4532 18.522 26.9469 17.4963 27.3021C18.8967 27.5982 20.1394 28.2198 21.2243 29.1673C22.3289 30.1148 23.2362 31.3189 23.9464 32.7795C24.6761 34.2402 25.179 35.928 25.4552 37.8428H19.1829C19.0843 36.1057 18.7193 34.635 18.0882 33.4309C17.4767 32.2072 16.6481 31.2696 15.6028 30.6182C14.5574 29.9669 13.3247 29.6412 11.9045 29.6412V37.8428H6.10547V16.9688H11.9045V24.9038ZM55.5626 16.9688C56.9827 16.9688 58.1958 17.1859 59.2017 17.6201C60.2273 18.0347 61.0163 18.6465 61.5686 19.4558C62.1208 20.2454 62.3971 21.2225 62.3971 22.3872C62.3971 23.4332 62.1603 24.3314 61.6868 25.0815C61.2334 25.8117 60.6218 26.3743 59.8526 26.7691C59.5535 26.915 59.2406 27.032 58.9146 27.121C59.4909 27.2527 60.0107 27.4709 60.4739 27.7758C61.2431 28.2693 61.8351 28.901 62.2492 29.6708C62.6634 30.4208 62.8704 31.2498 62.8706 32.1577C62.8706 33.3223 62.5943 34.3391 62.0421 35.2075C61.5094 36.0563 60.7204 36.7077 59.6752 37.1616C58.6494 37.6156 57.3871 37.8428 55.888 37.8428H45.5621V16.9688H55.5626ZM77.2761 21.6173H69.7314V25.0221H76.3887V29.4338H69.7314V33.1942H77.2761V37.8428H63.9326V16.9688H77.2761V21.6173ZM87.8047 16.9688C89.4417 16.9688 90.8324 17.2253 91.9764 17.7385C93.1401 18.2518 94.0278 19.0019 94.6392 19.9888C95.2702 20.9559 95.586 22.1207 95.586 23.4826C95.586 24.7064 95.2111 25.8316 94.4616 26.8581C93.712 27.8844 92.6174 28.5654 91.1775 28.901C92.1637 29.2364 93.0417 29.809 93.8109 30.6182C94.58 31.4076 95.221 32.4145 95.7338 33.6382C96.201 34.6945 96.539 35.9028 96.7483 37.2628L104.141 16.9688H110.827L118.402 37.8428H112.277L111.154 34.4378H103.761L102.632 37.8428H90.5563C90.4774 36.54 90.2605 35.385 89.9052 34.3784C89.5701 33.3521 89.0275 32.5329 88.278 31.921C87.8243 31.5262 87.2818 31.2204 86.6507 31.0031C86.0195 30.7664 85.2898 30.6379 84.4613 30.6182V37.8428H78.6624V16.9688H87.8047ZM51.3613 33.1646H54.7341C55.464 33.1646 56.0063 33.0164 56.3613 32.7205C56.7362 32.4046 56.9235 31.9407 56.9235 31.3288C56.9235 30.6973 56.7263 30.2135 56.3318 29.8781C55.9571 29.5425 55.4145 29.3747 54.7045 29.3747H51.3613V33.1646ZM105.232 29.9964H109.69L107.467 23.2551L105.232 29.9964ZM87.0492 19.6192C86.9506 19.4042 86.6444 19.4042 86.5446 19.6192C86.2167 20.3305 85.707 20.9695 85.0294 21.4628C84.3537 21.954 83.5908 22.2408 82.8164 22.3341C82.5789 22.3633 82.4771 22.652 82.6535 22.815C83.2274 23.3478 83.678 24.0292 83.9374 24.827C84.078 25.2592 84.1522 25.6972 84.1671 26.1302H89.4287C89.4438 25.6976 89.518 25.2596 89.6584 24.827C89.918 24.0294 90.3684 23.3467 90.9423 22.815H90.9402C91.1155 22.652 91.0149 22.3633 90.7774 22.3341C90.0031 22.2408 89.2402 21.954 88.5645 21.4628C87.8858 20.9695 87.3772 20.3296 87.0492 19.6192ZM51.3613 25.259H54.2903C55.0004 25.259 55.5427 25.1109 55.9174 24.8148C56.2923 24.5187 56.4798 24.0649 56.4798 23.453C56.4798 22.841 56.2923 22.3773 55.9174 22.0613C55.5427 21.7455 55.0004 21.5877 54.2903 21.5877H51.3613V25.259Z" fill="white"/>
</svg>
