<svg width="26" height="26" viewBox="0 0 26 26" fill="none" xmlns="http://www.w3.org/2000/svg">
<g filter="url(#filter0_d_3040_552)">
<circle cx="13" cy="13" r="10" fill="white"/>
</g>
<path d="M13 4C8.02961 4 4 8.02961 4 13C4 17.9704 8.02961 22 13 22C17.9704 22 22 17.9704 22 13C22 8.02961 17.9704 4 13 4Z" fill="black"/>
<path d="M13.9874 12.1856L17.8402 7.70703H16.9272L13.5818 11.5957L10.9099 7.70703H7.82812L11.8686 13.5874L7.82812 18.2838H8.74117L12.274 14.1773L15.0957 18.2838H18.1775L13.9872 12.1856H13.9874ZM9.07014 8.39436H10.4725L16.9276 17.6278H15.5253L9.07014 8.39436Z" fill="white"/>
<defs>
<filter id="filter0_d_3040_552" x="-2" y="-2" width="30" height="30" filterUnits="userSpaceOnUse" color-interpolation-filters="sRGB">
<feFlood flood-opacity="0" result="BackgroundImageFix"/>
<feColorMatrix in="SourceAlpha" type="matrix" values="0 0 0 0 0 0 0 0 0 0 0 0 0 0 0 0 0 0 127 0" result="hardAlpha"/>
<feMorphology radius="1" operator="dilate" in="SourceAlpha" result="effect1_dropShadow_3040_552"/>
<feOffset/>
<feGaussianBlur stdDeviation="2"/>
<feComposite in2="hardAlpha" operator="out"/>
<feColorMatrix type="matrix" values="0 0 0 0 1 0 0 0 0 1 0 0 0 0 1 0 0 0 0.4 0"/>
<feBlend mode="normal" in2="BackgroundImageFix" result="effect1_dropShadow_3040_552"/>
<feBlend mode="normal" in="SourceGraphic" in2="effect1_dropShadow_3040_552" result="shape"/>
</filter>
</defs>
</svg>
