<svg width="26" height="26" viewBox="0 0 26 26" fill="none" xmlns="http://www.w3.org/2000/svg">
<g filter="url(#filter0_d_3040_563)">
<circle cx="13" cy="13" r="10" fill="white"/>
</g>
<path d="M13 22C17.9706 22 22 17.9706 22 13C22 8.02944 17.9706 4 13 4C8.02944 4 4 8.02944 4 13C4 17.9706 8.02944 22 13 22Z" fill="#F20000"/>
<path d="M17.2858 10.8345C17.1058 10.2755 16.5102 9.94512 15.9571 9.86814C13.9859 9.65854 11.9979 9.65854 10.0266 9.86814C9.47833 9.94512 8.88267 10.2802 8.70267 10.8345C8.42203 12.2644 8.42203 13.7352 8.70267 15.1651C8.88741 15.7229 9.48307 16.0545 10.0361 16.1314C12.0074 16.3399 13.9953 16.3399 15.9666 16.1314C16.5149 16.0545 17.1106 15.7181 17.2906 15.1651C17.5697 13.7349 17.568 12.2641 17.2858 10.8345ZM11.9202 14.7234V11.275L14.7279 12.9992C13.7818 13.5806 12.8628 14.1467 11.9202 14.7234Z" fill="white"/>
<defs>
<filter id="filter0_d_3040_563" x="-2" y="-2" width="30" height="30" filterUnits="userSpaceOnUse" color-interpolation-filters="sRGB">
<feFlood flood-opacity="0" result="BackgroundImageFix"/>
<feColorMatrix in="SourceAlpha" type="matrix" values="0 0 0 0 0 0 0 0 0 0 0 0 0 0 0 0 0 0 127 0" result="hardAlpha"/>
<feMorphology radius="1" operator="dilate" in="SourceAlpha" result="effect1_dropShadow_3040_563"/>
<feOffset/>
<feGaussianBlur stdDeviation="2"/>
<feComposite in2="hardAlpha" operator="out"/>
<feColorMatrix type="matrix" values="0 0 0 0 1 0 0 0 0 1 0 0 0 0 1 0 0 0 0.4 0"/>
<feBlend mode="normal" in2="BackgroundImageFix" result="effect1_dropShadow_3040_563"/>
<feBlend mode="normal" in="SourceGraphic" in2="effect1_dropShadow_3040_563" result="shape"/>
</filter>
</defs>
</svg>
